<?xml version="1.0" standalone="no"?>
<!DOCTYPE svg PUBLIC "-//W3C//DTD SVG 20010904//EN"
 "http://www.w3.org/TR/2001/REC-SVG-20010904/DTD/svg10.dtd">
<svg version="1.0" xmlns="http://www.w3.org/2000/svg"
 width="90.000000pt" height="103.000000pt" viewBox="0 0 90.000000 103.000000"
 preserveAspectRatio="xMidYMid meet">

<g transform="translate(0.000000,103.000000) scale(0.100000,-0.100000)"
fill="#000000" stroke="none">
<path d="M435 1009 c5 -8 4 -10 -3 -5 -15 9 -73 -24 -65 -37 3 -6 1 -7 -5 -3
-15 9 -73 -24 -65 -37 3 -6 1 -7 -4 -4 -10 7 -113 -46 -236 -120 l-57 -35 2
-255 3 -256 125 -73 c69 -40 168 -98 221 -129 l97 -55 221 127 221 128 0 258
c0 222 -2 258 -14 254 -10 -4 -13 -1 -10 7 6 15 -22 29 -38 19 -6 -3 -8 -2 -5
4 8 12 -69 57 -83 48 -6 -4 -9 -1 -8 7 2 7 -5 12 -14 12 -10 -1 -16 1 -13 5 6
11 -54 43 -67 35 -6 -4 -8 -3 -5 3 8 12 -139 97 -153 88 -6 -4 -9 -1 -8 7 2 7
-8 14 -21 16 -16 3 -21 0 -16 -9z"/>
</g>
</svg>
